<svg xmlns="http://www.w3.org/2000/svg" version="1.1" xmlns:xlink="http://www.w3.org/1999/xlink" xmlns:svgjs="http://svgjs.com/svgjs" width="800" height="560" preserveAspectRatio="none" viewBox="0 0 800 560">
    <g mask="url(&quot;#SvgjsMask1035&quot;)" fill="none">
        <path d="M91.076,219.086C132.606,217.372,159.083,178.196,177.071,140.725C192.338,108.924,193.544,72.648,176.093,41.991C158.448,10.992,126.677,-8.15,91.076,-10.353C50.796,-12.845,7.043,-4.012,-14.352,30.207C-36.762,66.051,-28.763,111.458,-8.16,148.37C13.059,186.384,47.578,220.881,91.076,219.086" fill="rgba(17, 27, 33, 0.4)" class="triangle-float2"></path>
        <path d="M-130.27 55.59 a185.86 185.86 0 1 0 371.72 0 a185.86 185.86 0 1 0 -371.72 0z" fill="rgba(17, 27, 33, 0.4)" class="triangle-float3"></path>
        <path d="M-66.65 -8.03 a58.62 58.62 0 1 0 117.24 0 a58.62 58.62 0 1 0 -117.24 0z" fill="rgba(17, 27, 33, 0.4)" class="triangle-float3"></path>
        <path d="M755.725,157.825C787.042,158.58,813.04,136.977,829.378,110.249C846.591,82.089,857.925,46.822,840.84,18.584C824.146,-9.009,787.972,-11.026,755.725,-11.485C722.297,-11.961,682.921,-12.911,666.31,16.101C649.749,45.025,670.193,78.652,687.977,106.84C704.141,132.459,725.442,157.095,755.725,157.825" fill="rgba(17, 27, 33, 0.4)" class="triangle-float2"></path>
        <path d="M607.1 6.24 a87.14 87.14 0 1 0 174.28 0 a87.14 87.14 0 1 0 -174.28 0z" fill="rgba(17, 27, 33, 0.4)" class="triangle-float1"></path>
        <path d="M726.875,106.211C749.737,106.339,768.273,89.151,778.856,68.886C788.631,50.17,787.924,28.01,777.223,9.807C766.672,-8.14,747.694,-19.522,726.875,-19.533C706.037,-19.544,686.895,-8.269,676.435,9.753C665.933,27.848,666.195,49.772,675.89,68.312C686.408,88.425,704.178,106.084,726.875,106.211" fill="rgba(17, 27, 33, 0.4)" class="triangle-float2"></path>
        <path d="M-81.36 454.69 a88.05 88.05 0 1 0 176.1 0 a88.05 88.05 0 1 0 -176.1 0z" fill="rgba(17, 27, 33, 0.4)" class="triangle-float2"></path>
        <path d="M-47.81 421.15 a20.96 20.96 0 1 0 41.92 0 a20.96 20.96 0 1 0 -41.92 0z" fill="rgba(17, 27, 33, 0.4)" class="triangle-float2"></path>
        <path d="M125.797,719.034C175.197,718.459,214.409,681.996,238.444,638.834C261.737,597.004,270.227,545.667,244.99,504.981C220.809,465.998,171.649,455.821,125.797,457.228C82.832,458.546,41.709,475.66,18.63,511.924C-6.303,551.101,-12.828,600.267,8.513,641.511C31.596,686.121,75.572,719.619,125.797,719.034" fill="rgba(17, 27, 33, 0.4)" class="triangle-float3"></path>
        <path d="M586.92 474.42 a127.5 127.5 0 1 0 255 0 a127.5 127.5 0 1 0 -255 0z" fill="rgba(17, 27, 33, 0.4)" class="triangle-float2"></path>
        <path d="M797.412,663.152C844.031,663.606,900.208,670.594,923.71,630.33C947.293,589.927,917.221,542.067,890.5,503.667C868.453,471.984,836.009,449.173,797.412,448.827C758.204,448.476,723.478,469.577,701.389,501.973C675.504,539.936,651.787,588.437,675.304,627.911C698.543,666.918,752.009,662.71,797.412,663.152" fill="rgba(17, 27, 33, 0.4)" class="triangle-float1"></path>
        <path d="M638.13 423.2 a25.07 25.07 0 1 0 50.14 0 a25.07 25.07 0 1 0 -50.14 0z" fill="rgba(17, 27, 33, 0.4)" class="triangle-float3"></path>
    </g>
    <defs>
        <mask id="SvgjsMask1035">
            <rect width="800" height="560" fill="#ffffff"></rect>
        </mask>
        <style>
            @keyframes float1 {
                0%{transform: translate(0, 0)}
                50%{transform: translate(-10px, 0)}
                100%{transform: translate(0, 0)}
            }

            .triangle-float1 {
                animation: float1 5s infinite;
            }

            @keyframes float2 {
                0%{transform: translate(0, 0)}
                50%{transform: translate(-5px, -5px)}
                100%{transform: translate(0, 0)}
            }

            .triangle-float2 {
                animation: float2 4s infinite;
            }

            @keyframes float3 {
                0%{transform: translate(0, 0)}
                50%{transform: translate(0, -10px)}
                100%{transform: translate(0, 0)}
            }

            .triangle-float3 {
                animation: float3 6s infinite;
            }
        </style>
    </defs>
</svg>
